<svg width="29" height="29" viewBox="0 0 29 29" fill="none" xmlns="http://www.w3.org/2000/svg">
<mask id="mask0_0_1524" style="mask-type:alpha" maskUnits="userSpaceOnUse" x="0" y="0" width="29" height="29">
<path fill-rule="evenodd" clip-rule="evenodd" d="M14.7003 0.00680542C6.81067 0.00680542 0.407471 6.41001 0.407471 14.2997C0.407471 22.1893 6.81067 28.5925 14.7003 28.5925C22.59 28.5925 28.9932 22.1893 28.9932 14.2997C28.9932 6.41001 22.59 0.00680542 14.7003 0.00680542ZM15.4293 11.4268C15.4293 9.06848 13.4997 7.13894 11.1414 7.13894C8.78308 7.13894 6.85355 9.06848 6.85355 11.4268C6.85355 13.7851 8.78308 15.7147 11.1414 15.7147C13.4997 15.7147 15.4293 13.7851 15.4293 11.4268ZM11.1414 12.8561C10.3553 12.8561 9.71212 12.2129 9.71212 11.4268C9.71212 10.6407 10.3553 9.99751 11.1414 9.99751C11.9275 9.99751 12.5707 10.6407 12.5707 11.4268C12.5707 12.2129 11.9275 12.8561 11.1414 12.8561ZM23.2903 12.8561C23.2903 14.4426 22.0183 15.7147 20.4318 15.7147C18.8453 15.7147 17.5732 14.4426 17.5732 12.8561C17.5589 11.2696 18.8453 9.99751 20.4318 9.99751C22.0183 9.99751 23.2903 11.2696 23.2903 12.8561ZM11.1414 20.0168C9.1547 20.0168 6.88214 20.8315 5.91022 21.6033C7.86834 23.9616 10.7555 25.5053 14 25.6911V21.7177C14 19.0163 18.2593 17.8586 20.4318 17.8586C21.6895 17.8586 23.6334 18.2588 25.0627 19.1021C25.7487 17.6299 26.1346 16.0005 26.1346 14.2854C26.1346 7.98222 21.0035 2.85108 14.7003 2.85108C8.39718 2.85108 3.26604 7.98222 3.26604 14.2854C3.26604 16.0434 3.66624 17.7014 4.38089 19.1878C6.29613 17.7871 9.28333 17.1439 11.1414 17.1439C11.7703 17.1439 12.5278 17.2297 13.3282 17.3726C12.4278 18.1873 11.8132 19.1164 11.4701 20.0311C11.4111 20.0311 11.352 20.0273 11.2949 20.0236C11.2415 20.0201 11.1898 20.0168 11.1414 20.0168Z" fill="white"/>
</mask>
<g mask="url(#mask0_0_1524)">
<rect x="-4" y="-3" width="36" height="36" fill="white"/>
</g>
</svg>
